<svg width="191" height="174" viewBox="0 0 191 174" fill="none" xmlns="http://www.w3.org/2000/svg">
<path d="M326.815 -119.13C303.248 -143.365 257.039 -162.989 236.941 -130.264C221.749 -105.529 262.746 -101.551 251.457 -63.9299C240.168 -26.3091 204.549 2.41184 167.955 -2.91198C141.008 -6.83237 145.742 -41.818 120.104 -49.5487C61.1729 -67.3184 -28.5607 41.9758 10.4985 87.5697C36.3891 117.792 79.0273 82.3009 117.329 95.8114C163.867 112.227 162.956 170.67 213.891 173.336C252.41 175.352 292.118 173.481 311.509 136.998C336.693 89.6181 204.447 101.427 224.507 52.2042C233.826 29.3362 249.857 21.5441 269.599 5.93779C293.731 -13.1394 321.504 -6.06244 337.718 -32.0446C357.371 -63.536 349.585 -95.7162 326.815 -119.13Z" fill="url(#paint0_linear_23_21)" fill-opacity="0.6"/>
<defs>
<linearGradient id="paint0_linear_23_21" x1="448.969" y1="-0.122253" x2="-19.6361" y2="-38.5484" gradientUnits="userSpaceOnUse">
<stop offset="0.659217" stop-color="#AA7A52"/>
<stop offset="0.832847" stop-color="#A87047"/>
<stop offset="1" stop-color="#BDC5A5"/>
</linearGradient>
</defs>
</svg>
