<svg width="122" height="276" viewBox="0 0 122 276" fill="none" xmlns="http://www.w3.org/2000/svg">
<path d="M-246.968 170.541C-247.874 204.334 -229.675 251.123 -192.212 242.675C-163.895 236.29 -189.661 204.154 -154.84 185.981C-120.019 167.807 -74.5901 173.269 -52.8614 203.192C-36.8608 225.226 -65.2195 246.254 -52.8614 270.01C-24.4556 324.615 116.444 312.594 121.834 252.799C125.407 213.164 70.2306 207.401 53.1728 170.541C32.4472 125.757 74.936 85.6182 41.2946 47.2812C15.8534 18.2889 -13.2008 -8.84112 -52.8614 2.73538C-104.369 17.77 -3.61029 104.234 -52.8614 124.224C-75.7427 133.511 -92.5119 127.469 -117.467 124.224C-147.972 120.257 -162.289 95.4283 -192.212 101.951C-228.481 109.857 -246.092 137.893 -246.968 170.541Z" fill="url(#paint0_linear_23_20)" fill-opacity="0.6"/>
<defs>
<linearGradient id="paint0_linear_23_20" x1="-247" y1="0" x2="52.5491" y2="362.405" gradientUnits="userSpaceOnUse">
<stop offset="0.659217" stop-color="#AA7A52"/>
<stop offset="0.832847" stop-color="#A87047"/>
<stop offset="1" stop-color="#BDC5A5"/>
</linearGradient>
</defs>
</svg>
