<svg xmlns="http://www.w3.org/2000/svg" xmlns:xlink="http://www.w3.org/1999/xlink" width="794" zoomAndPan="magnify" viewBox="0 0 595.5 842.249979" height="1123" preserveAspectRatio="xMidYMid meet" version="1.0"><defs><clipPath id="ae0bde7c80"><path d="M 0.015625 0 L 594.984375 0 L 594.984375 841.5 L 0.015625 841.5 Z M 0.015625 0 " clip-rule="nonzero"/></clipPath><clipPath id="0ba8079246"><path d="M 131 314 L 463.371094 314 L 463.371094 527 L 131 527 Z M 131 314 " clip-rule="nonzero"/></clipPath><clipPath id="0e54c0e18b"><path d="M 317.207031 391.800781 L 360.207031 391.800781 L 360.207031 454 L 317.207031 454 Z M 317.207031 391.800781 " clip-rule="nonzero"/></clipPath><clipPath id="d053e91910"><path d="M 188.660156 488.875 L 209.636719 488.875 L 209.636719 519 L 188.660156 519 Z M 188.660156 488.875 " clip-rule="nonzero"/></clipPath><clipPath id="2b7ffeb4d1"><path d="M 169.152344 450.28125 L 190.128906 450.28125 L 190.128906 480.695312 L 169.152344 480.695312 Z M 169.152344 450.28125 " clip-rule="nonzero"/></clipPath></defs><g clip-path="url(#ae0bde7c80)"><path fill="#ffffff" d="M 0.015625 0 L 594.984375 0 L 594.984375 841.5 L 0.015625 841.5 Z M 0.015625 0 " fill-opacity="1" fill-rule="nonzero"/><path fill="#ffffff" d="M 0.015625 0 L 594.984375 0 L 594.984375 841.5 L 0.015625 841.5 Z M 0.015625 0 " fill-opacity="1" fill-rule="nonzero"/></g><g clip-path="url(#0ba8079246)"><path fill="#a67048" d="M 460.863281 387.1875 C 459.285156 384.105469 457.933594 380.722656 456.503906 377.5625 C 453.121094 369.519531 450.339844 361.175781 446.730469 353.203125 C 443.949219 346.8125 440.789062 340.574219 437.480469 334.410156 C 435.601562 330.726562 433.273438 327.265625 432.292969 323.132812 C 431.996094 321.929688 431.394531 320.953125 430.867188 319.898438 C 430.265625 318.773438 429.738281 317.417969 428.988281 316.289062 C 428.386719 315.011719 427.257812 313.808594 425.753906 314.109375 C 423.046875 314.484375 420.339844 314.710938 417.710938 315.011719 C 406.207031 316.441406 394.855469 319.074219 383.351562 320.425781 C 374.707031 321.402344 366.210938 323.132812 357.640625 324.261719 C 350.875 325.238281 344.257812 326.816406 337.492188 327.34375 C 328.621094 330.574219 320.351562 335.234375 311.855469 339.445312 C 310.050781 340.347656 307.792969 341.175781 306.441406 342.828125 C 304.261719 345.234375 302.15625 347.714844 300.503906 350.5 C 297.417969 354.933594 294.335938 359.445312 291.105469 363.804688 C 290.050781 365.160156 289 366.511719 288.546875 368.164062 C 287.871094 370.796875 287.042969 373.652344 285.316406 375.835938 C 284.640625 376.738281 283.511719 376.8125 282.609375 377.335938 C 281.933594 377.636719 281.332031 378.015625 280.730469 378.390625 C 278.324219 379.820312 276.144531 381.398438 273.210938 381.324219 C 272.761719 381.472656 272.082031 381.246094 271.480469 381.171875 C 271.03125 380.722656 270.730469 380.121094 270.429688 379.519531 C 269.753906 378.464844 268.925781 377.714844 268.324219 376.585938 C 267.121094 374.855469 265.46875 373.578125 264.414062 371.773438 C 263.890625 370.722656 262.609375 370.570312 261.558594 370.722656 C 260.503906 370.796875 259.378906 370.648438 258.324219 370.722656 C 255.09375 371.171875 251.933594 371.398438 248.628906 371.472656 C 245.167969 371.773438 241.558594 371.699219 238.027344 371.324219 C 235.019531 371.097656 232.164062 370.347656 229.15625 370.121094 C 226.898438 369.746094 224.644531 369.066406 222.464844 368.242188 C 221.261719 367.640625 220.207031 366.660156 218.929688 366.136719 C 215.097656 364.707031 210.960938 364.933594 206.976562 364.933594 C 203.21875 364.933594 199.308594 364.859375 195.625 365.984375 C 194.570312 366.210938 193.59375 365.910156 192.542969 365.835938 C 189.007812 365.683594 185.398438 366.136719 181.941406 366.738281 C 180.964844 367.113281 180.136719 367.789062 179.085938 368.164062 C 178.332031 368.390625 177.503906 368.316406 176.753906 368.542969 C 175.777344 368.691406 174.800781 370.195312 173.898438 369.21875 C 173.597656 368.992188 173.296875 368.691406 172.84375 368.464844 C 171.640625 368.164062 170.289062 368.242188 169.234375 367.488281 C 168.109375 366.738281 167.207031 365.609375 166.226562 364.632812 C 165.023438 363.503906 163.445312 362.902344 161.867188 362.527344 C 158.484375 361.398438 155.25 363.429688 152.921875 365.761719 C 152.09375 366.8125 150.363281 367.941406 150.742188 369.519531 C 150.964844 370.046875 151.417969 370.269531 151.867188 370.496094 C 153.371094 371.324219 150.964844 372.375 150.589844 373.203125 C 148.261719 376.359375 147.734375 380.644531 148.710938 384.40625 C 149.011719 385.082031 149.386719 385.832031 149.914062 386.359375 C 150.363281 386.734375 151.042969 386.960938 151.265625 387.5625 C 151.492188 388.238281 151.34375 388.914062 151.265625 389.667969 C 151.265625 389.742188 151.191406 389.742188 151.117188 389.816406 C 150.964844 389.894531 150.816406 389.96875 150.742188 390.042969 C 150.664062 390.042969 150.589844 390.042969 150.441406 390.042969 C 149.3125 390.269531 148.183594 390.71875 147.28125 391.398438 C 145.855469 392.449219 145.476562 394.328125 144.125 395.457031 C 142.621094 396.285156 140.890625 396.808594 139.6875 398.164062 C 139.164062 398.988281 138.5625 399.742188 138.261719 400.644531 C 138.1875 401.246094 138.035156 401.621094 137.960938 402.296875 C 137.734375 406.28125 139.238281 410.34375 137.960938 414.25 C 136.984375 417.257812 134.5 419.664062 134.277344 422.898438 C 133.675781 425.605469 135.328125 427.933594 136.230469 430.339844 C 136.683594 431.917969 137.132812 433.949219 136.984375 435.679688 C 136.832031 435.753906 136.683594 435.828125 136.53125 435.679688 C 135.929688 435.226562 135.328125 434.699219 134.5 434.476562 C 133.074219 433.949219 131.042969 435.300781 131.496094 436.957031 C 131.644531 437.707031 132.246094 438.160156 132.847656 438.609375 C 133.300781 439.0625 133.75 439.4375 134.277344 439.738281 C 135.402344 440.414062 136.304688 441.242188 137.433594 441.84375 C 137.734375 441.992188 138.109375 441.992188 138.261719 442.292969 C 138.9375 444.023438 139.539062 446.054688 140.289062 447.859375 C 140.515625 449.511719 140.140625 451.089844 140.140625 452.820312 C 140.066406 454.851562 140.589844 456.730469 141.117188 458.683594 C 141.71875 461.390625 141.570312 464.171875 141.945312 466.878906 C 143.222656 470.636719 144.425781 474.546875 145.703125 478.304688 C 145.929688 480.488281 147.28125 482.140625 148.335938 483.945312 C 148.785156 487.253906 149.085938 490.636719 148.5625 494.019531 C 147.882812 496.652344 147.808594 499.355469 147.882812 502.0625 C 147.808594 504.019531 147.882812 505.972656 148.710938 507.851562 C 149.914062 510.785156 152.167969 512.816406 153.597656 515.597656 C 154.273438 516.722656 154.949219 517.851562 155.25 519.128906 C 155.328125 520.558594 155.777344 521.988281 156.90625 522.964844 C 159.460938 524.917969 162.621094 522.664062 165.476562 523.714844 C 167.507812 524.015625 169.160156 525.371094 170.964844 526.273438 C 173.445312 527.324219 176.226562 526.347656 178.859375 526.875 C 181.1875 526.949219 183.519531 526.273438 185.476562 525.070312 C 187.730469 523.789062 189.910156 521.988281 192.617188 522.136719 C 193.519531 522.363281 194.496094 522.589844 195.398438 522.511719 C 196.75 522.589844 198.03125 523.339844 199.382812 522.964844 C 200.738281 522.890625 201.863281 522.136719 203.066406 521.6875 C 204.042969 521.535156 205.023438 521.308594 205.925781 520.859375 C 206.828125 520.558594 207.804688 520.257812 208.628906 519.65625 C 209.457031 519.203125 209.757812 518.304688 209.984375 517.476562 C 210.886719 515.144531 212.992188 513.792969 215.320312 512.964844 C 216.976562 512.363281 218.78125 512.0625 220.285156 511.011719 C 221.9375 510.183594 223.066406 508.753906 223.742188 507.027344 C 224.945312 504.996094 226.976562 504.019531 229.15625 503.191406 C 231.410156 502.289062 233.890625 501.914062 236.296875 501.6875 C 239.605469 501.3125 242.6875 500.636719 245.996094 500.636719 C 249.226562 500.484375 252.535156 501.160156 255.84375 500.859375 C 257.648438 500.558594 259.527344 500.636719 261.332031 500.109375 C 262.6875 499.957031 264.113281 499.882812 265.390625 499.355469 C 267.648438 498.378906 269.679688 496.875 272.160156 496.351562 C 276.292969 495.296875 280.652344 494.695312 284.5625 492.964844 C 287.871094 491.3125 289.601562 487.929688 292.609375 485.824219 C 293.960938 484.921875 295.316406 484.773438 296.894531 484.394531 C 298.472656 483.871094 299.675781 482.589844 301.179688 481.839844 C 303.585938 480.710938 306.066406 481.839844 308.394531 482.589844 C 312.15625 483.644531 316.441406 483.945312 319.898438 481.988281 C 320.273438 481.765625 320.800781 481.613281 321.253906 481.539062 C 326.816406 481.011719 330.574219 476.652344 334.109375 472.742188 C 335.160156 471.691406 336.214844 470.414062 336.890625 469.058594 C 337.492188 467.855469 337.867188 466.503906 338.695312 465.375 C 339.671875 463.871094 341.324219 462.742188 342.90625 461.917969 C 345.761719 460.261719 348.691406 458.910156 351.925781 458.082031 C 356.511719 456.953125 361.171875 455.902344 365.910156 455.375 C 368.84375 455 371.773438 454.699219 374.554688 453.796875 C 376.285156 453.046875 377.863281 451.917969 379.59375 451.089844 C 382.148438 449.585938 385.007812 448.683594 387.9375 448.308594 C 391.320312 447.40625 394.703125 446.429688 398.085938 445.601562 C 403.574219 444.25 408.6875 441.46875 414.25 440.1875 C 416.28125 439.363281 420.265625 439.136719 420.867188 436.65625 C 420.941406 435.527344 421.167969 434.550781 422.296875 434.101562 C 423.875 433.347656 425.453125 432.972656 427.105469 432.21875 C 428.609375 431.46875 429.964844 430.414062 431.542969 429.890625 C 433.875 429.0625 437.03125 428.835938 438.160156 426.355469 C 438.761719 425.152344 438.007812 423.875 438.007812 422.597656 C 437.78125 420.71875 436.65625 419.136719 435.828125 417.484375 C 435.527344 415.679688 435.902344 413.726562 436.582031 411.996094 C 437.558594 409.964844 438.984375 408.3125 440.039062 406.359375 C 441.617188 403.875 444.023438 401.921875 446.730469 400.492188 C 448.609375 399.515625 450.714844 399.214844 452.746094 398.613281 C 456.128906 397.335938 460.035156 397.789062 462.894531 395.304688 C 463.269531 395.003906 463.644531 394.628906 463.71875 394.179688 C 463.34375 391.398438 461.917969 389.441406 460.863281 387.1875 Z M 425.226562 316.140625 Z M 210.585938 366.738281 C 212.914062 366.738281 215.320312 366.960938 217.578125 367.5625 C 219.15625 368.089844 220.285156 369.292969 221.789062 369.96875 C 225.394531 371.472656 229.304688 372 233.214844 372.449219 C 237.800781 373.429688 242.539062 373.578125 247.273438 373.351562 C 250.128906 373.128906 253.0625 373.128906 255.917969 372.75 C 257.722656 372.449219 259.527344 372.375 261.40625 372.449219 C 262.085938 372.375 262.6875 372.375 263.0625 373.050781 C 263.890625 374.40625 265.089844 375.609375 266.144531 376.738281 C 267.121094 378.316406 268.476562 379.742188 269.300781 381.398438 C 269.527344 381.773438 269.753906 382.074219 270.054688 382.300781 C 270.203125 387.488281 270.429688 392.75 270.429688 398.011719 C 270.429688 399.367188 270.277344 400.71875 270.128906 402.074219 C 270.054688 402.375 269.753906 402.597656 269.453125 402.824219 C 267.722656 404.476562 266.070312 406.132812 264.414062 407.863281 C 264.039062 408.3125 263.738281 408.761719 263.363281 409.214844 C 262.085938 409.0625 260.804688 409.589844 259.453125 409.589844 C 252.160156 410.566406 244.941406 411.996094 237.5 412.671875 C 233.964844 413.199219 230.28125 413.726562 227.351562 415.980469 C 225.621094 417.710938 224.644531 420.117188 223.214844 422.144531 C 222.839844 422.746094 222.238281 423.347656 221.636719 423.800781 C 220.886719 423.949219 220.132812 423.949219 219.304688 423.949219 C 217.203125 423.875 214.871094 423.800781 213.066406 422.445312 C 210.734375 420.339844 209.007812 417.710938 206.601562 415.679688 C 205.097656 413.800781 202.539062 413.351562 200.210938 413.273438 C 198.632812 413.125 196.976562 412.75 195.398438 412.972656 C 193.066406 410.34375 191.789062 410.34375 187.054688 411.621094 C 186.828125 411.621094 186.527344 411.695312 186.226562 411.769531 C 186 410.71875 185.476562 409.363281 185.777344 407.5625 C 186.152344 406.660156 186.902344 405.757812 186.902344 404.703125 C 187.128906 403.351562 186.753906 402.074219 186.375 400.71875 C 185.925781 398.914062 185.550781 397.035156 184.496094 395.457031 C 183.59375 393.878906 181.789062 393.050781 181.113281 391.320312 C 180.886719 389.066406 183.59375 388.089844 185.097656 386.8125 C 187.878906 384.40625 189.910156 381.171875 192.765625 378.839844 C 194.796875 377.636719 197.351562 378.464844 199.535156 378.839844 C 201.1875 378.992188 202.992188 379.292969 204.570312 378.464844 C 205.472656 377.789062 204.945312 376.511719 205.097656 375.535156 C 205.472656 372.601562 205.472656 369.667969 205.773438 366.738281 C 207.425781 366.738281 209.007812 366.738281 210.585938 366.738281 Z M 250.65625 425.980469 C 246.523438 428.460938 242.539062 431.242188 238.628906 434.101562 C 235.769531 436.203125 232.6875 438.007812 229.757812 439.964844 C 227.953125 441.167969 225.921875 442.371094 225.019531 444.398438 C 223.96875 446.429688 223.589844 448.609375 222.839844 450.714844 C 222.390625 452.144531 222.164062 453.570312 221.863281 455 C 221.789062 455.375 221.863281 455.902344 222.089844 456.203125 C 222.238281 456.429688 222.390625 456.730469 222.613281 456.953125 C 222.390625 457.554688 222.3125 458.234375 222.089844 458.835938 C 220.660156 460.414062 218.328125 458.757812 216.824219 460.113281 C 216.300781 460.640625 215.847656 461.316406 215.171875 461.765625 C 214.496094 462.21875 213.367188 462.820312 212.765625 461.839844 C 212.464844 460.9375 211.863281 460.113281 211.335938 459.359375 C 210.886719 458.609375 210.285156 457.855469 209.984375 457.03125 C 209.832031 456.128906 210.210938 455.074219 209.832031 454.25 C 209.082031 452.667969 207.953125 451.992188 206.75 451.84375 C 206.75 451.691406 206.675781 451.542969 206.675781 451.390625 C 206 446.355469 209.230469 447.332031 210.660156 443.875 C 211.261719 440.789062 208.707031 438.085938 205.925781 437.257812 C 205.472656 437.03125 204.871094 436.804688 204.421875 436.429688 C 203.742188 435.828125 203.441406 435 202.691406 434.476562 C 201.261719 433.347656 199.535156 434.476562 198.179688 435 C 196.375 435 192.617188 434.402344 191.941406 432.597656 C 191.640625 431.394531 193.21875 431.46875 193.96875 431.167969 C 195.851562 430.566406 197.953125 431.09375 199.835938 430.492188 C 202.238281 429.4375 201.5625 425.679688 199.835938 424.25 C 199.15625 423.800781 198.480469 423.425781 197.804688 422.972656 C 197.503906 422.746094 197.050781 422.445312 197.128906 421.996094 C 198.554688 419.738281 198.855469 417.335938 197.277344 415.003906 C 197.128906 414.777344 196.902344 414.550781 196.75 414.328125 C 197.878906 414.328125 199.007812 414.476562 200.058594 414.628906 C 201.414062 414.777344 202.917969 414.703125 204.195312 415.378906 C 207.125 417.410156 209.230469 420.566406 211.789062 423.046875 C 213.667969 424.851562 216.449219 425.226562 218.929688 425.226562 C 220.132812 425.226562 221.5625 425.453125 222.6875 424.777344 C 225.09375 422.824219 226.148438 419.664062 228.027344 417.257812 C 232.238281 413.800781 238.777344 414.101562 244.039062 413.273438 C 250.128906 412.597656 256.070312 411.167969 262.160156 410.644531 C 260.957031 412.296875 259.753906 414.027344 258.476562 415.679688 C 255.84375 419.289062 252.988281 422.371094 250.65625 425.980469 Z M 237.875 477.179688 C 237.199219 478.90625 235.847656 479.960938 234.265625 480.863281 C 233.363281 481.464844 232.988281 482.367188 232.238281 483.117188 C 231.484375 483.71875 230.507812 484.171875 229.53125 484.320312 C 227.953125 484.773438 226.597656 483.871094 225.246094 483.191406 C 223.441406 482.667969 221.488281 482.214844 219.683594 482.367188 C 219.683594 482.066406 219.683594 481.765625 219.605469 481.613281 C 219.53125 480.5625 218.855469 479.585938 217.878906 479.207031 C 216.902344 478.832031 215.921875 479.132812 215.019531 479.585938 C 214.195312 479.886719 213.367188 479.886719 212.539062 480.109375 C 212.390625 480.109375 212.3125 480.1875 212.238281 480.1875 C 212.011719 478.90625 211.035156 477.480469 210.210938 476.953125 C 209.457031 476.351562 208.929688 475.523438 208.628906 474.546875 C 208.105469 473.570312 207.425781 472.515625 206.375 472.214844 C 205.472656 471.992188 204.496094 471.765625 203.519531 471.839844 C 201.9375 471.914062 198.632812 472.816406 196 474.246094 C 195.773438 473.644531 195.472656 473.117188 195.171875 472.59375 C 194.722656 471.914062 194.046875 471.464844 193.367188 471.164062 C 193.59375 470.414062 193.746094 469.660156 194.195312 469.058594 C 195.171875 468.683594 196.226562 468.609375 197.050781 468.082031 C 198.03125 467.328125 198.554688 466.050781 198.40625 464.847656 C 198.03125 463.34375 197.652344 461.992188 198.179688 460.414062 C 198.332031 458.984375 199.007812 457.480469 200.058594 456.503906 C 202.164062 454.773438 206.449219 451.164062 208.328125 454.851562 C 208.328125 455.601562 208.253906 456.429688 208.328125 457.179688 C 208.554688 458.082031 209.230469 458.835938 209.683594 459.660156 C 210.058594 460.261719 210.585938 460.863281 210.886719 461.464844 C 211.261719 462.742188 212.390625 463.871094 213.742188 463.722656 C 215.019531 463.496094 216.222656 462.742188 217.050781 461.765625 C 217.351562 461.464844 217.652344 460.9375 218.101562 460.9375 C 219.382812 460.863281 220.808594 461.316406 221.9375 460.5625 C 222.390625 460.113281 223.214844 460.039062 223.289062 459.285156 C 223.441406 458.683594 223.589844 458.15625 223.816406 457.554688 C 223.890625 457.554688 223.96875 457.554688 224.042969 457.554688 C 225.171875 457.332031 226.222656 457.253906 227.351562 457.707031 C 227.800781 458.457031 227.425781 459.4375 227.800781 460.1875 C 228.777344 461.316406 229.378906 462.519531 229.757812 463.945312 C 230.433594 465.976562 230.960938 468.984375 233.441406 469.511719 C 234.265625 469.660156 235.167969 469.8125 235.847656 470.488281 C 236.597656 471.238281 236.75 472.367188 237.425781 473.117188 C 237.652344 473.34375 237.875 473.496094 238.175781 473.644531 C 237.953125 474.773438 238.402344 476.425781 237.875 477.179688 Z M 191.640625 494.394531 C 191.640625 493.945312 191.339844 493.417969 191.113281 492.964844 C 190.886719 492.515625 190.585938 492.066406 190.136719 491.765625 C 189.683594 491.386719 189.082031 491.464844 188.632812 491.085938 C 188.40625 490.484375 188.179688 489.808594 187.65625 489.359375 C 187.429688 489.207031 187.277344 489.058594 187.054688 488.980469 C 187.054688 488.757812 187.054688 488.605469 186.902344 488.457031 C 187.355469 484.773438 187.578125 483.492188 191.261719 482.140625 C 192.316406 481.765625 193.59375 481.390625 193.96875 480.261719 C 194.269531 479.132812 193.445312 477.78125 194.648438 477.027344 C 197.730469 475 201.714844 472.894531 205.546875 473.644531 C 206.75 473.871094 207.203125 475.300781 207.652344 476.277344 C 208.480469 477.855469 210.359375 478.605469 210.660156 480.488281 C 210.660156 480.5625 210.660156 480.636719 210.660156 480.710938 C 208.554688 481.765625 209.308594 483.34375 208.179688 485.976562 C 207.277344 486.953125 206 487.402344 204.796875 488.003906 C 203.441406 488.457031 202.089844 488.90625 200.8125 489.507812 C 199.757812 490.035156 199.535156 491.164062 199.308594 492.214844 C 199.234375 492.441406 199.082031 492.589844 198.855469 492.664062 C 197.953125 493.042969 197.128906 493.417969 196.226562 493.792969 C 194.796875 494.246094 193.21875 494.246094 191.640625 494.394531 Z M 165.25 477.703125 C 165.324219 477.703125 165.324219 477.703125 165.25 477.703125 C 165.324219 477.703125 165.324219 477.703125 165.25 477.703125 C 161.941406 477.253906 160.0625 475.75 160.363281 472.140625 C 160.363281 471.691406 160.289062 471.238281 160.136719 470.863281 C 160.214844 470.863281 160.289062 470.789062 160.363281 470.714844 C 161.191406 470.261719 161.867188 469.585938 162.621094 468.984375 C 163.296875 468.382812 163.898438 467.929688 164.574219 467.253906 C 165.101562 466.726562 165.625 466.203125 166.304688 465.976562 C 167.355469 465.828125 168.332031 466.425781 169.386719 466.128906 C 171.714844 465.074219 173.519531 462.066406 172.769531 459.4375 C 172.167969 457.332031 170.363281 455.976562 169.234375 454.171875 C 168.933594 453.796875 168.785156 453.347656 168.558594 452.96875 C 171.792969 452.445312 174.648438 449.585938 177.804688 448.609375 C 179.386719 448.308594 180.886719 448.984375 182.242188 449.738281 C 184.722656 450.863281 187.503906 450.113281 189.910156 448.984375 C 191.414062 448.535156 192.617188 447.707031 193.96875 446.957031 C 195.472656 446.730469 197.578125 446.957031 198.480469 448.382812 C 199.382812 449.738281 198.40625 451.542969 199.234375 452.820312 C 199.609375 453.347656 200.136719 453.648438 200.4375 454.171875 C 199.984375 454.550781 199.535156 454.925781 199.15625 455.300781 C 197.050781 457.332031 196.226562 460.714844 196.75 463.644531 C 196.976562 464.472656 197.277344 465.300781 196.828125 466.050781 C 196.152344 467.628906 193.667969 466.804688 192.84375 468.382812 C 192.464844 469.058594 192.242188 469.8125 192.015625 470.5625 C 191.640625 470.488281 191.1875 470.414062 190.8125 470.335938 C 189.535156 469.886719 188.558594 468.683594 187.503906 467.929688 C 186.074219 466.804688 184.496094 465.226562 182.542969 466.050781 C 181.789062 466.277344 181.039062 466.878906 180.210938 466.878906 C 179.460938 466.726562 179.007812 466.050781 178.183594 465.75 C 176.378906 465 173.597656 464.925781 172.84375 467.105469 C 172.46875 468.230469 172.695312 469.359375 172.542969 470.488281 C 171.714844 472.140625 169.3125 471.914062 168.257812 473.496094 C 167.207031 474.546875 167.28125 476.050781 166.679688 477.328125 C 166.453125 477.480469 166.226562 477.703125 166.078125 477.929688 C 165.851562 477.855469 165.550781 477.78125 165.25 477.703125 Z M 159.988281 461.316406 C 159.3125 458.007812 158.9375 453.570312 162.167969 451.390625 C 162.542969 451.164062 162.996094 450.941406 163.445312 450.789062 C 163.824219 451.917969 164.875 452.519531 165.925781 452.894531 C 166.304688 452.96875 166.605469 453.046875 166.980469 453.121094 C 167.054688 453.421875 167.28125 453.796875 167.429688 454.023438 C 169.3125 457.78125 174.121094 460.113281 169.761719 464.324219 C 169.160156 465.074219 168.183594 464.773438 167.429688 464.625 C 166.527344 464.472656 165.550781 464.625 164.800781 465.226562 C 163.371094 466.351562 162.09375 467.707031 160.589844 468.832031 C 160.289062 469.132812 159.914062 469.285156 159.613281 469.511719 C 159.539062 468.082031 160.964844 467.027344 160.964844 465.601562 C 161.265625 464.023438 160.289062 462.742188 159.988281 461.316406 Z M 164.648438 429.136719 C 165.550781 430.039062 167.429688 429.511719 168.933594 429.363281 C 169.988281 429.4375 171.113281 429.4375 172.09375 429.890625 C 171.640625 430.566406 171.492188 431.394531 171.867188 432.746094 C 171.941406 433.121094 171.867188 433.574219 171.867188 433.949219 C 170.511719 435.527344 168.785156 436.503906 166.90625 437.332031 C 164.574219 438.007812 162.242188 439.363281 162.621094 442.144531 C 162.621094 443.421875 161.417969 444.324219 160.363281 444.851562 C 160.136719 444.777344 159.988281 444.777344 159.761719 444.851562 C 159.011719 444.175781 158.558594 443.347656 157.957031 442.445312 C 157.132812 441.167969 155.851562 440.339844 154.949219 439.136719 C 153.671875 436.503906 152.847656 433.648438 152.320312 430.714844 C 152.847656 430.714844 153.523438 430.492188 154.050781 430.566406 C 156.003906 430.339844 157.957031 430.265625 159.914062 429.964844 C 161.039062 429.890625 162.167969 429.964844 163.296875 429.664062 C 163.746094 429.511719 164.199219 429.289062 164.648438 429.136719 Z M 167.582031 418.386719 C 167.28125 417.558594 167.28125 416.582031 166.90625 415.753906 C 166.527344 415.078125 166.003906 414.402344 165.324219 413.949219 C 165.023438 413.726562 164.574219 413.726562 164.199219 413.574219 C 163.070312 411.996094 162.996094 409.964844 162.84375 408.164062 C 162.46875 404.929688 161.867188 401.773438 161.867188 398.464844 C 161.867188 396.886719 161.191406 395.304688 161.117188 393.726562 C 163.972656 393.578125 165.175781 392.75 167.957031 390.496094 C 169.6875 389.214844 172.015625 390.117188 173.519531 391.398438 C 174.5 392.675781 175.550781 394.027344 177.355469 393.878906 C 178.332031 393.878906 179.234375 393.578125 180.0625 393.125 C 180.210938 393.125 180.363281 393.125 180.4375 393.050781 C 181.265625 394.179688 182.542969 395.082031 183.292969 396.207031 C 184.195312 397.636719 184.574219 399.140625 184.949219 400.792969 C 185.25 402.074219 185.625 403.273438 185.476562 404.554688 C 185.398438 405.605469 184.421875 406.433594 184.347656 407.484375 C 184.273438 408.464844 184.347656 409.441406 184.496094 410.417969 C 184.574219 411.167969 185.175781 411.921875 184.949219 412.597656 C 184.273438 413.199219 183.445312 413.199219 182.617188 413.652344 C 181.566406 414.25 181.488281 415.753906 181.339844 416.808594 C 181.414062 418.386719 181.488281 419.816406 181.1875 421.394531 C 180.664062 423.5 179.460938 425.605469 177.65625 426.957031 C 176.378906 427.710938 174.574219 428.085938 173.371094 428.761719 C 173.21875 428.6875 173.070312 428.535156 172.84375 428.460938 C 171.566406 427.859375 169.988281 427.785156 168.558594 427.785156 C 167.65625 427.785156 166.679688 428.160156 165.777344 427.933594 C 165.476562 425.980469 166.226562 425.152344 168.109375 424.777344 C 170.8125 423.347656 168.558594 420.339844 167.582031 418.386719 Z M 162.921875 444.699219 C 163.597656 444.023438 163.972656 443.046875 164.046875 442.070312 C 163.972656 441.089844 164.199219 440.113281 165.175781 439.589844 C 167.507812 438.386719 170.136719 437.785156 172.015625 435.828125 C 172.542969 435.226562 173.671875 434.625 173.371094 433.722656 C 173.519531 432.898438 173.21875 432.144531 173.21875 431.316406 C 173.21875 430.714844 173.671875 430.339844 174.121094 430.039062 C 175.398438 429.511719 176.902344 429.214844 178.183594 428.535156 C 181.039062 426.730469 182.84375 423.273438 182.917969 419.964844 C 183.070312 418.3125 182.617188 416.734375 183.292969 415.152344 C 185.023438 414.628906 185.851562 414.101562 186.226562 413.574219 C 186.527344 413.652344 186.902344 413.574219 187.128906 413.273438 C 189.234375 413.125 191.488281 411.546875 193.519531 412.972656 C 193.894531 413.425781 194.347656 413.875 194.722656 414.328125 C 194.796875 414.476562 194.949219 414.628906 195.097656 414.703125 C 196.449219 416.207031 197.578125 418.011719 196.675781 420.039062 C 196.300781 420.71875 195.699219 421.542969 195.773438 422.371094 C 195.925781 424.328125 198.179688 424.703125 199.382812 425.90625 C 199.757812 426.582031 199.984375 427.257812 200.058594 428.011719 C 200.058594 430.039062 197.578125 429.214844 196.300781 429.4375 C 194.570312 429.664062 192.617188 429.8125 191.113281 430.867188 C 189.007812 433.949219 192.917969 435.753906 195.472656 436.28125 C 196.601562 436.582031 197.878906 436.804688 199.007812 436.503906 C 199.835938 436.203125 200.660156 435.453125 201.636719 435.601562 C 202.316406 435.828125 202.617188 436.65625 203.066406 437.183594 C 203.96875 438.234375 205.398438 438.6875 206.675781 439.289062 C 208.253906 440.039062 209.457031 441.691406 209.382812 443.496094 C 208.78125 445.300781 206.375 445.828125 205.773438 447.707031 C 205.171875 449.0625 205.246094 450.566406 205.398438 451.992188 C 204.269531 452.21875 203.066406 452.820312 201.9375 453.496094 C 201.5625 452.894531 200.738281 452.59375 200.585938 451.917969 C 200.585938 450.039062 200.738281 448.007812 199.082031 446.730469 C 197.277344 445.527344 194.496094 444.925781 192.617188 446.355469 C 191.714844 447.03125 190.664062 447.480469 189.609375 447.859375 C 188.332031 448.382812 187.128906 448.984375 185.699219 449.0625 C 184.046875 449.363281 182.691406 448.382812 181.1875 447.707031 C 179.085938 446.957031 176.828125 447.40625 175.023438 448.683594 C 172.167969 450.039062 168.859375 453.195312 165.550781 451.164062 C 165.324219 450.941406 165.101562 450.714844 165.023438 450.414062 C 164.800781 447.105469 163.445312 447.257812 161.492188 446.128906 C 161.941406 445.675781 162.46875 445.152344 162.921875 444.699219 Z M 165.925781 484.246094 C 165.925781 484.019531 165.777344 483.71875 165.777344 483.492188 C 165.703125 482.589844 165.476562 481.539062 165.925781 480.636719 C 166.304688 479.585938 167.355469 478.984375 168.03125 478.082031 C 168.632812 476.800781 168.484375 475.148438 169.761719 474.171875 C 172.917969 472.441406 174.273438 472.742188 174.046875 468.457031 C 174.046875 468.007812 174.121094 467.480469 174.574219 467.253906 C 176.152344 466.351562 177.957031 467.480469 179.234375 468.308594 C 180.589844 468.910156 181.867188 468.007812 183.144531 467.554688 C 183.519531 467.40625 183.972656 467.40625 184.421875 467.628906 C 186.300781 468.832031 187.804688 470.488281 189.683594 471.613281 C 190.4375 472.066406 191.339844 471.992188 192.164062 472.214844 C 193.519531 472.59375 194.347656 473.71875 194.796875 475 C 193.292969 476.050781 192.316406 477.253906 192.542969 478.53125 C 192.542969 479.058594 192.917969 479.808594 192.164062 480.109375 C 189.609375 481.089844 186.453125 482.140625 186 485.222656 C 185.925781 485.824219 185.398438 487.476562 185.398438 488.605469 C 184.796875 488.605469 184.195312 488.679688 183.59375 488.679688 C 182.617188 488.679688 181.789062 488.15625 180.886719 487.855469 C 179.460938 487.402344 177.957031 487.328125 176.527344 487.027344 C 174.5 486.199219 172.695312 484.847656 170.511719 484.472656 C 169.085938 484.171875 167.507812 484.472656 165.925781 484.246094 Z M 150.964844 384.554688 C 150.214844 383.425781 150.140625 382 150.289062 380.644531 C 150.289062 379.292969 150.363281 378.164062 150.816406 376.8125 C 151.265625 375.835938 151.71875 374.933594 152.394531 374.03125 C 154.351562 372.449219 155.550781 370.347656 152.847656 368.765625 C 156.304688 364.480469 159.6875 362.375 164.800781 365.683594 C 166.152344 366.960938 167.28125 368.542969 169.085938 369.367188 C 169.6875 369.59375 170.289062 369.894531 170.890625 369.96875 C 171.492188 370.121094 172.167969 369.894531 172.695312 370.347656 C 175.101562 372.75 176.152344 370.046875 178.558594 370.046875 C 180.289062 370.046875 181.566406 368.617188 183.21875 368.242188 C 185.550781 367.941406 187.878906 367.714844 190.136719 367.488281 C 192.164062 367.261719 194.347656 368.089844 196.300781 367.640625 C 198.933594 366.886719 201.636719 366.738281 204.34375 366.660156 C 204.34375 366.738281 204.421875 366.8125 204.421875 366.8125 C 204.269531 368.617188 204.121094 370.496094 204.042969 372.300781 C 203.96875 373.878906 203.667969 375.535156 203.667969 377.1875 C 202.164062 377.636719 200.660156 377.335938 199.15625 377.113281 C 196.828125 376.660156 194.195312 376.136719 192.015625 377.488281 C 189.234375 379.742188 187.203125 382.675781 184.722656 385.15625 C 183.371094 386.433594 181.488281 387.035156 180.511719 388.613281 C 179.988281 389.441406 179.460938 390.570312 179.761719 391.546875 C 179.085938 391.847656 178.40625 392.300781 177.582031 392.300781 C 176 392.523438 175.398438 391.097656 174.421875 390.117188 C 173.144531 389.140625 171.566406 388.238281 169.914062 388.238281 C 167.054688 388.089844 165.476562 390.945312 162.996094 391.773438 C 161.566406 392.148438 159.988281 391.921875 158.484375 392.074219 C 157.207031 392.148438 155.929688 392.074219 154.648438 391.773438 C 153.898438 391.546875 153.222656 391.246094 152.621094 390.644531 C 152.769531 390.417969 152.921875 390.195312 152.996094 389.96875 C 153.222656 389.066406 153.296875 388.011719 153.148438 387.113281 C 152.996094 386.210938 152.320312 385.382812 151.566406 384.929688 C 151.492188 385.007812 151.191406 384.855469 150.964844 384.554688 Z M 140.589844 411.621094 C 141.34375 407.410156 138.109375 401.921875 142.019531 398.765625 C 143.296875 397.863281 145.027344 397.488281 146.15625 396.359375 C 146.980469 395.457031 147.359375 394.328125 148.183594 393.351562 C 148.863281 392.449219 150.0625 392.074219 151.191406 391.847656 C 151.191406 391.847656 151.265625 391.847656 151.265625 391.773438 C 151.417969 391.921875 151.566406 392 151.792969 392 C 153.75 393.878906 156.753906 393.878906 159.3125 393.726562 C 159.460938 393.726562 159.539062 393.726562 159.6875 393.726562 C 159.761719 395.304688 160.289062 396.660156 160.4375 398.238281 C 160.515625 402.675781 161.265625 407.109375 161.867188 411.546875 C 162.242188 412.824219 162.621094 414.628906 164.046875 415.078125 C 164.273438 415.152344 164.5 415.078125 164.726562 415.230469 C 165.402344 415.832031 165.851562 416.507812 165.925781 417.484375 C 166.078125 419.214844 167.355469 420.566406 167.957031 422.222656 C 168.410156 423.574219 167.355469 423.574219 166.453125 423.875 C 165.175781 424.476562 164.273438 425.90625 164.347656 427.332031 C 164.347656 427.484375 164.347656 427.632812 164.347656 427.710938 C 163.824219 427.859375 163.296875 428.160156 162.769531 428.234375 C 162.019531 428.386719 161.265625 428.234375 160.515625 428.386719 C 158.257812 428.613281 156.003906 428.914062 153.75 429.0625 C 153.371094 429.136719 152.695312 429.0625 152.167969 429.214844 C 152.167969 429.0625 152.09375 428.914062 152.09375 428.761719 C 152.019531 427.109375 152.46875 425.378906 152.46875 423.726562 C 152.46875 421.84375 152.46875 419.289062 150.515625 418.3125 C 149.539062 417.859375 148.410156 417.410156 147.28125 417.785156 C 145.777344 418.613281 144.199219 419.289062 142.472656 419.363281 C 140.96875 419.515625 139.6875 418.761719 138.335938 418.3125 C 139.464844 416.132812 140.667969 414.027344 140.589844 411.621094 Z M 148.5625 480.109375 C 147.058594 475.601562 145.703125 471.015625 144.125 466.578125 C 143.597656 462.96875 143.75 458.984375 142.546875 455.453125 C 141.945312 452.667969 142.921875 449.964844 142.394531 447.105469 C 141.570312 445.226562 140.96875 443.347656 140.289062 441.46875 C 139.914062 440.414062 138.785156 440.1875 137.960938 439.738281 C 136.53125 438.6875 134.878906 437.785156 133.597656 436.429688 C 134.5 435.527344 135.554688 437.40625 136.53125 437.558594 C 140.667969 438.007812 138.9375 432.21875 138.335938 429.890625 C 137.886719 428.234375 136.832031 426.882812 136.382812 425.226562 C 136.003906 423.273438 136.605469 421.46875 137.433594 419.816406 C 137.734375 420.039062 138.035156 420.117188 138.335938 419.964844 C 140.816406 421.320312 143.75 421.09375 146.304688 419.964844 C 146.90625 419.664062 147.507812 419.136719 148.261719 419.214844 C 148.9375 419.363281 149.761719 419.589844 150.214844 420.117188 C 151.792969 423.273438 149.914062 426.808594 150.589844 430.113281 C 151.492188 434.550781 152.246094 439.664062 156.003906 442.59375 C 156.90625 443.574219 157.507812 445 158.558594 445.976562 C 159.460938 446.730469 160.363281 447.480469 161.417969 447.933594 C 161.941406 448.160156 162.542969 448.308594 162.921875 448.761719 C 163.070312 448.984375 163.144531 449.210938 163.144531 449.4375 C 162.46875 449.585938 161.792969 450.039062 161.265625 450.339844 C 158.785156 451.917969 157.882812 455.074219 158.035156 457.933594 C 158.035156 459.359375 158.335938 460.789062 158.636719 462.21875 C 159.085938 463.570312 159.914062 464.847656 159.3125 466.277344 C 158.335938 467.78125 157.507812 469.734375 158.710938 471.390625 C 158.859375 471.691406 158.859375 471.992188 158.9375 472.367188 C 158.558594 476.578125 161.117188 478.832031 165.101562 479.359375 C 164.425781 480.410156 164.046875 481.613281 164.273438 482.96875 C 164.347656 483.191406 164.347656 483.417969 164.347656 483.644531 C 163.972656 483.417969 163.523438 483.191406 163.070312 483.042969 C 162.019531 482.742188 160.816406 482.589844 159.6875 482.742188 C 157.582031 483.117188 156.90625 484.847656 156.90625 486.726562 C 155.703125 488.457031 153.449219 489.132812 151.566406 489.734375 C 151.566406 489.734375 151.644531 489.734375 151.644531 489.734375 C 151.417969 489.808594 151.191406 489.808594 150.964844 489.882812 C 150.890625 487.929688 150.890625 486.050781 150.589844 484.09375 C 150.363281 482.441406 149.238281 481.390625 148.5625 480.109375 Z M 157.433594 518.753906 C 157.207031 517.25 156.378906 515.898438 155.628906 514.617188 C 154.199219 511.761719 151.792969 509.582031 150.589844 506.574219 C 149.539062 503.792969 150.140625 500.710938 150.140625 497.703125 C 150.289062 495.523438 151.042969 493.492188 151.042969 491.238281 C 151.191406 491.238281 151.34375 491.164062 151.492188 491.085938 C 153.972656 490.410156 157.355469 489.359375 158.410156 486.800781 C 158.558594 486.125 158.335938 485.375 158.785156 484.773438 C 159.238281 484.019531 160.136719 483.945312 160.964844 484.019531 C 162.167969 484.019531 163.296875 484.472656 164.273438 485.148438 C 165.851562 486.277344 168.03125 485.597656 169.835938 485.898438 C 172.015625 486.199219 173.820312 487.476562 175.777344 488.378906 C 177.203125 488.980469 178.859375 488.90625 180.363281 489.359375 C 181.566406 489.882812 182.769531 490.484375 184.121094 490.335938 C 184.875 490.335938 185.699219 490.035156 186.453125 490.335938 C 186.902344 490.5625 187.054688 491.085938 187.203125 491.464844 C 187.503906 492.441406 188.40625 492.664062 189.308594 492.964844 C 189.683594 493.34375 189.910156 493.792969 190.136719 494.320312 C 190.0625 494.394531 190.0625 494.546875 189.984375 494.621094 C 189.761719 494.695312 189.535156 494.695312 189.308594 494.769531 C 187.804688 495.148438 185.550781 496.351562 186.152344 498.230469 C 186.300781 498.679688 186.675781 498.980469 186.753906 499.507812 C 186.375 500.257812 185.550781 500.859375 185.398438 501.761719 C 184.875 504.167969 184.046875 504.621094 181.640625 504.394531 C 180.363281 504.621094 179.6875 505.824219 178.859375 506.726562 C 178.03125 508.003906 176.828125 508.980469 175.550781 509.882812 C 172.917969 511.761719 172.996094 509.882812 170.738281 509.28125 C 168.859375 508.980469 166.152344 509.054688 165.101562 511.011719 C 164.648438 511.761719 164.875 512.589844 164.875 513.417969 C 164.875 513.640625 164.875 513.867188 164.574219 513.941406 C 163.371094 514.394531 162.394531 515.21875 161.492188 516.121094 C 160.289062 517.324219 159.835938 519.203125 159.3125 520.785156 C 159.238281 521.007812 159.160156 521.308594 159.085938 521.609375 C 159.011719 521.609375 159.011719 521.609375 158.9375 521.609375 C 157.882812 521.308594 157.433594 519.882812 157.433594 518.753906 Z M 182.316406 524.316406 C 180.664062 524.917969 178.859375 524.691406 177.128906 524.542969 C 175.550781 524.46875 174.199219 524.691406 172.542969 524.46875 C 171.113281 523.941406 169.988281 522.964844 168.558594 522.363281 C 167.054688 521.6875 165.324219 521.308594 163.671875 521.160156 C 162.695312 521.160156 161.792969 521.386719 160.816406 521.535156 C 160.890625 521.308594 160.890625 521.160156 160.964844 520.933594 C 161.339844 519.804688 161.640625 518.753906 162.242188 517.703125 C 162.996094 516.722656 163.972656 515.972656 165.101562 515.371094 C 166.378906 515.070312 166.753906 513.714844 166.453125 512.589844 C 166.378906 512.136719 166.453125 511.613281 166.753906 511.3125 C 167.957031 510.410156 169.835938 510.332031 171.191406 511.011719 C 173.070312 513.039062 175.550781 511.988281 177.355469 510.410156 C 179.085938 509.355469 179.988281 507.476562 181.414062 506.125 C 182.167969 505.671875 182.917969 506.199219 183.746094 505.972656 C 184.722656 505.746094 185.625 505.144531 186.152344 504.242188 C 186.601562 503.417969 186.601562 502.441406 187.128906 501.6875 C 188.40625 500.183594 188.632812 499.507812 187.578125 497.703125 C 188.03125 496.726562 189.082031 496.5 190.0625 496.199219 C 192.089844 495.671875 194.195312 495.824219 196.226562 495.296875 C 197.578125 494.695312 199.15625 494.320312 200.359375 493.34375 C 200.886719 492.816406 200.886719 492.066406 201.113281 491.464844 C 201.1875 491.085938 201.414062 490.785156 201.714844 490.636719 C 202.765625 490.183594 203.894531 489.808594 205.023438 489.433594 C 209.382812 487.628906 209.832031 487.253906 210.660156 482.589844 C 210.660156 482.589844 210.734375 482.289062 210.886719 482.289062 C 212.089844 481.613281 213.515625 481.390625 214.871094 481.089844 C 215.921875 480.789062 217.5 479.734375 218.027344 481.3125 C 218.101562 481.765625 218.179688 482.289062 218.101562 482.816406 C 216.074219 484.019531 214.945312 486.425781 213.367188 488.230469 C 211.5625 490.410156 210.359375 492.816406 214.117188 493.566406 C 213.667969 494.847656 212.464844 496.050781 212.914062 497.476562 C 213.066406 498.53125 214.496094 499.433594 213.96875 500.484375 C 212.691406 501.386719 210.8125 501.3125 209.910156 502.664062 C 208.707031 504.542969 208.253906 506.949219 208.554688 509.207031 C 208.628906 510.632812 209.15625 511.914062 209.53125 513.265625 C 209.609375 513.566406 209.609375 513.941406 209.683594 514.316406 C 209.308594 514.769531 209.007812 515.21875 208.78125 515.671875 C 205.472656 513.792969 202.691406 514.015625 199.15625 515.21875 C 195.851562 516.046875 191.339844 516.121094 189.535156 519.582031 C 189.460938 519.882812 189.234375 520.257812 189.082031 520.707031 C 186.902344 521.761719 184.722656 523.566406 182.316406 524.316406 Z M 206.300781 518.601562 C 205.246094 518.980469 204.195312 519.503906 203.066406 519.582031 C 202.238281 519.804688 201.488281 520.257812 200.660156 520.632812 C 199.308594 521.085938 197.953125 520.933594 196.675781 520.558594 C 195.550781 520.40625 194.421875 520.558594 193.367188 520.183594 C 192.617188 520.03125 191.863281 520.105469 191.113281 520.257812 C 192.464844 517.851562 196.152344 517.703125 198.554688 517.101562 C 200.660156 516.722656 202.539062 515.671875 204.722656 515.972656 C 205.625 516.121094 206.449219 516.347656 207.277344 516.800781 C 207.578125 516.949219 207.878906 517.175781 208.253906 517.324219 C 208.179688 517.476562 208.179688 517.625 208.105469 517.777344 C 207.652344 518.152344 206.976562 518.453125 206.300781 518.601562 Z M 267.046875 496.351562 C 266.144531 496.726562 265.167969 497.476562 264.113281 497.703125 C 262.761719 498.003906 261.40625 497.929688 260.054688 498.378906 C 258.324219 498.605469 256.597656 498.753906 254.867188 498.90625 C 252.386719 498.832031 249.679688 498.605469 247.199219 498.605469 C 243.589844 498.53125 239.980469 499.207031 236.371094 499.65625 C 230.734375 500.109375 223.816406 501.761719 221.5625 507.628906 C 219.90625 509.65625 217.277344 510.257812 214.871094 511.085938 C 213.515625 511.535156 212.238281 512.289062 211.113281 513.191406 C 210.886719 511.988281 210.285156 510.859375 210.210938 509.582031 C 209.910156 507.628906 210.132812 505.597656 211.113281 503.867188 C 211.9375 502.589844 213.742188 502.816406 214.871094 501.914062 C 216.601562 500.710938 215.320312 498.679688 214.496094 497.253906 C 214.117188 495.671875 216.601562 494.167969 215.472656 492.589844 C 214.871094 491.988281 213.667969 492.363281 213.214844 491.539062 C 213.742188 489.960938 215.171875 488.832031 216 487.476562 C 216.976562 486.050781 218.027344 484.394531 219.832031 483.871094 C 221.5625 483.945312 223.367188 484.09375 225.019531 484.773438 C 225.996094 485.375 226.976562 485.898438 228.175781 485.976562 C 230.808594 486.199219 233.363281 484.847656 234.71875 482.589844 C 235.695312 481.613281 237.125 481.238281 237.953125 480.109375 C 239.152344 478.605469 239.90625 476.800781 239.605469 474.921875 C 239.605469 474.773438 239.605469 474.621094 239.679688 474.472656 C 240.207031 474.546875 240.808594 474.621094 241.335938 474.546875 C 243.363281 474.246094 244.792969 472.292969 246.824219 472.066406 C 247.949219 472.066406 248.402344 473.417969 248.175781 474.320312 C 247.726562 475.523438 247.046875 477.253906 248.550781 478.082031 C 250.65625 479.132812 253.289062 479.359375 255.617188 479.058594 C 256.898438 478.90625 257.121094 477.253906 258.25 476.953125 C 260.957031 476.953125 263.738281 477.402344 266.445312 476.953125 C 268.023438 476.726562 269.300781 475.976562 270.804688 475.449219 C 272.007812 475.074219 273.585938 475.222656 273.8125 476.726562 C 273.8125 478.53125 272.535156 480.109375 272.460938 481.914062 C 272.082031 484.472656 274.339844 486.351562 274.789062 488.679688 C 275.015625 489.808594 275.316406 491.011719 275.542969 492.140625 C 275.617188 492.589844 275.617188 493.042969 275.765625 493.492188 C 272.761719 494.019531 269.679688 494.769531 267.046875 496.351562 Z M 320.351562 479.507812 C 316.816406 481.464844 312.832031 481.613281 308.996094 480.410156 C 306.214844 479.433594 303.058594 478.457031 300.277344 479.886719 C 298.847656 480.5625 297.644531 482.066406 295.992188 482.367188 C 290.050781 482.96875 288.398438 488.605469 283.660156 491.085938 C 281.632812 491.914062 279.527344 492.441406 277.347656 492.964844 C 277.347656 492.816406 277.269531 492.742188 277.121094 492.664062 C 276.820312 491.011719 276.519531 489.359375 276.066406 487.777344 C 275.691406 485.824219 274.039062 484.320312 273.8125 482.367188 C 273.8125 480.261719 275.464844 478.457031 275.242188 476.351562 C 274.714844 473.042969 270.730469 473.34375 268.476562 474.621094 C 265.167969 476.277344 261.40625 475.222656 257.875 475.375 C 256.597656 475.523438 256.144531 476.800781 255.316406 477.402344 C 254.566406 477.703125 253.738281 477.554688 252.988281 477.480469 C 251.710938 477.402344 250.207031 477.328125 249.152344 476.503906 C 249.078125 475.824219 249.527344 475.222656 249.679688 474.472656 C 250.207031 472.59375 248.925781 470.1875 246.824219 470.335938 C 244.492188 470.335938 242.914062 472.96875 240.507812 472.816406 C 239.753906 472.667969 238.851562 472.59375 238.476562 471.839844 C 237.800781 470.1875 236.671875 468.53125 234.867188 468.230469 C 234.265625 468.082031 233.664062 468.082031 233.140625 467.707031 C 232.3125 466.578125 231.863281 465.300781 231.410156 463.871094 C 230.960938 462.292969 230.507812 460.714844 229.304688 459.511719 C 229.15625 458.910156 229.304688 458.15625 229.078125 457.554688 C 228.855469 456.277344 227.5 456.050781 226.375 455.828125 C 225.773438 455.75 225.171875 455.75 224.570312 455.902344 C 224.117188 456.128906 223.667969 455.828125 223.441406 455.375 C 223.367188 455.300781 223.289062 455.152344 223.367188 455.074219 C 223.742188 452.96875 224.34375 450.941406 224.945312 448.910156 C 225.472656 447.03125 226.074219 445 227.351562 443.421875 C 229.378906 441.691406 231.710938 440.265625 234.042969 438.835938 C 239.378906 435.453125 244.265625 431.394531 249.753906 428.160156 C 250.128906 427.859375 250.582031 427.632812 251.03125 427.410156 C 251.109375 427.410156 251.183594 427.484375 251.257812 427.484375 C 251.484375 427.558594 251.710938 427.558594 251.859375 427.410156 C 252.160156 427.332031 252.460938 427.410156 252.835938 427.410156 C 256.371094 427.484375 259.980469 427.332031 263.511719 427.183594 C 269.601562 426.582031 275.691406 426.28125 281.78125 425.679688 C 286.441406 425.078125 291.105469 424.550781 295.839844 424.925781 C 295.765625 425.527344 295.914062 426.054688 295.914062 426.65625 C 295.839844 427.558594 294.9375 428.011719 294.261719 428.535156 C 293.433594 429.4375 293.359375 430.792969 292.757812 431.84375 C 292.308594 432.898438 291.328125 433.5 290.429688 434.175781 C 287.796875 435.679688 288.925781 437.558594 288.925781 439.964844 C 288.925781 441.242188 288.472656 442.445312 288.847656 443.722656 C 289 444.851562 289.902344 445.675781 289.976562 446.804688 C 288.546875 448.007812 287.496094 449.511719 285.992188 450.5625 C 285.390625 451.015625 284.5625 451.464844 284.1875 452.144531 C 283.738281 454.097656 285.917969 455.453125 287.195312 456.578125 C 287.871094 457.179688 288.773438 457.707031 289.527344 458.234375 C 290.652344 459.285156 292.007812 460.339844 293.585938 460.714844 C 294.261719 460.941406 294.863281 461.617188 295.617188 461.617188 C 297.417969 461.691406 299.222656 461.992188 301.101562 462.066406 C 301.554688 462.066406 301.929688 462.292969 302.15625 462.667969 C 302.304688 462.820312 302.605469 463.121094 302.683594 463.34375 C 303.660156 465.226562 304.710938 467.105469 305.914062 468.910156 C 306.441406 469.660156 306.816406 470.636719 307.792969 470.789062 C 312.457031 471.613281 316.964844 469.058594 320.726562 473.417969 C 321.253906 474.171875 321.101562 475.074219 321.253906 475.902344 C 321.628906 476.878906 321.554688 477.855469 321.855469 478.984375 C 321.253906 479.285156 320.800781 479.359375 320.351562 479.507812 Z M 387.863281 446.054688 C 382.675781 446.503906 378.390625 449.511719 373.804688 451.765625 C 370.421875 452.746094 366.8125 452.96875 363.355469 453.496094 C 358.769531 454.25 354.179688 455.152344 349.671875 456.503906 C 344.257812 458.609375 337.640625 461.089844 335.761719 467.105469 C 334.710938 469.8125 332.378906 471.613281 330.425781 473.71875 C 328.695312 475.75 326.589844 477.554688 324.035156 478.605469 C 323.734375 478.757812 323.433594 478.832031 323.132812 478.90625 C 323.054688 478.683594 322.980469 478.457031 322.980469 478.15625 C 322.90625 477.703125 322.90625 477.253906 322.832031 476.726562 C 322.53125 475.976562 322.53125 475.375 322.453125 474.472656 C 322.378906 473.042969 321.328125 472.066406 320.273438 471.390625 C 317.265625 468.609375 312.980469 469.734375 309.296875 469.734375 C 308.847656 469.660156 308.019531 469.8125 307.71875 469.359375 C 307.042969 468.308594 306.367188 467.328125 305.765625 466.203125 C 304.5625 464.472656 303.960938 462.066406 302.003906 461.015625 C 299.824219 460.5625 297.496094 460.640625 295.316406 460.261719 C 294.488281 459.511719 293.359375 459.4375 292.382812 458.910156 C 291.480469 458.308594 290.726562 457.480469 289.828125 456.878906 C 288.246094 455.75 286.441406 454.699219 285.539062 452.96875 C 287.269531 451.691406 289 450.265625 290.429688 448.609375 C 291.78125 447.859375 291.628906 446.429688 290.953125 445.226562 C 290.503906 444.476562 290.203125 443.574219 290.128906 442.671875 C 290.277344 441.769531 290.429688 440.789062 290.351562 439.8125 C 290.351562 438.761719 289.976562 437.785156 290.050781 436.730469 C 291.027344 435.300781 292.984375 434.777344 293.8125 433.199219 C 294.335938 432.21875 294.636719 431.167969 295.089844 430.113281 C 295.238281 429.8125 295.691406 429.664062 295.917969 429.4375 C 297.117188 428.613281 297.496094 427.109375 297.195312 425.679688 C 297.195312 425.226562 297.496094 424.851562 297.269531 424.476562 C 296.667969 423.5 295.316406 423.726562 294.261719 423.648438 C 290.050781 423.347656 285.765625 423.949219 281.554688 424.476562 C 277.570312 424.925781 273.363281 425.078125 269.378906 425.453125 C 266.144531 425.828125 262.835938 425.980469 259.527344 426.128906 C 257.421875 426.128906 255.394531 426.207031 253.289062 426.207031 C 253.0625 426.207031 252.6875 426.207031 252.3125 426.128906 C 254.640625 422.746094 257.421875 419.664062 259.902344 416.433594 C 261.933594 413.800781 263.738281 411.019531 265.917969 408.539062 C 267.574219 407.109375 268.925781 405.378906 270.730469 403.953125 C 271.707031 403.199219 271.632812 401.847656 271.78125 400.71875 C 272.007812 398.164062 271.859375 395.53125 271.859375 392.898438 C 271.78125 389.742188 271.859375 386.359375 271.480469 383.203125 C 271.558594 383.203125 271.558594 383.203125 271.632812 383.203125 C 273.363281 383.351562 275.242188 383.203125 276.894531 382.75 C 279.601562 381.546875 281.933594 379.59375 284.714844 378.539062 C 286.894531 377.789062 288.023438 375.457031 288.773438 373.503906 C 289.527344 371.699219 290.050781 369.820312 290.652344 367.941406 C 292.082031 365.382812 294.113281 363.128906 295.839844 360.648438 C 297.71875 358.015625 299.523438 355.308594 301.402344 352.679688 C 302.90625 350.347656 304.488281 348.015625 306.367188 345.910156 C 307.417969 344.558594 308.773438 343.054688 310.425781 342.378906 C 319.222656 338.09375 327.941406 333.355469 337.039062 329.597656 C 343.28125 328.769531 349.519531 327.792969 355.761719 326.664062 C 365.910156 325.3125 375.910156 323.359375 386.058594 322.230469 C 394.703125 320.953125 403.199219 319.449219 411.769531 318.019531 C 415.753906 317.34375 419.738281 316.96875 423.722656 316.515625 C 424.175781 316.515625 424.625 316.441406 425.078125 316.367188 C 422.519531 321.027344 418.085938 324.261719 415.003906 328.621094 C 413.648438 330.347656 413.875 332.679688 413.726562 334.785156 C 413.726562 335.386719 413.800781 335.988281 413.648438 336.589844 C 413.273438 337.191406 412.898438 337.792969 412.597656 338.46875 C 410.941406 341.550781 410.867188 345.085938 410.941406 348.46875 C 410.867188 351.925781 411.320312 355.535156 410.566406 358.992188 C 409.964844 360.722656 408.839844 362.074219 407.785156 363.730469 C 406.28125 366.285156 404.703125 368.917969 403.351562 371.550781 C 402.523438 373.050781 401.621094 374.632812 401.246094 376.359375 C 401.019531 378.015625 401.019531 379.820312 400.117188 381.324219 C 398.238281 382.523438 396.507812 383.953125 394.554688 385.082031 C 393.351562 385.683594 392.074219 384.855469 390.792969 384.929688 C 389.140625 384.855469 387.1875 385.082031 386.433594 386.8125 C 384.328125 391.097656 383.652344 391.320312 378.992188 392 C 377.488281 392 376.058594 391.921875 374.628906 392.449219 C 373.953125 392.601562 373.429688 392.976562 373.277344 393.652344 C 372.828125 394.78125 373.429688 395.832031 373.578125 397.035156 C 373.578125 401.09375 371.246094 404.703125 370.644531 408.6875 C 370.570312 409.742188 371.398438 410.566406 372.074219 411.320312 C 372.527344 411.769531 372.375 412.371094 372.226562 412.898438 C 370.644531 415.832031 369.667969 419.0625 369.144531 422.371094 C 368.992188 424.101562 368.164062 426.507812 369.742188 427.859375 C 370.496094 428.613281 371.472656 428.6875 372.527344 428.613281 C 373.953125 428.988281 372.226562 430.941406 371.925781 431.695312 C 371.472656 432.671875 371.246094 433.722656 371.246094 434.777344 C 371.546875 437.558594 375.308594 438.085938 377.5625 437.707031 C 380.042969 437.332031 382.675781 437.257812 385.15625 437.03125 C 385.605469 437.03125 386.207031 437.183594 386.660156 437.332031 C 387.335938 438.160156 387.636719 439.210938 388.089844 440.265625 C 388.765625 441.992188 389.441406 443.875 389.816406 445.753906 C 389.292969 445.675781 388.613281 445.828125 387.863281 446.054688 Z M 451.316406 396.660156 C 446.730469 397.488281 442.445312 399.96875 439.511719 403.652344 C 437.78125 406.28125 435.753906 408.839844 434.625 411.769531 C 434.097656 413.726562 433.648438 415.832031 434.175781 417.785156 C 435.078125 419.589844 436.355469 421.394531 436.429688 423.5 C 436.65625 424.324219 436.882812 425.378906 436.054688 425.90625 C 434.625 426.957031 432.746094 427.109375 431.09375 427.710938 C 428.460938 428.761719 426.128906 430.640625 423.347656 431.316406 C 421.09375 431.917969 419.136719 433.347656 419.214844 435.980469 C 419.214844 436.128906 418.988281 436.28125 418.835938 436.355469 C 415.378906 437.933594 411.394531 438.386719 407.859375 439.8125 C 402.75 442.070312 397.335938 443.421875 391.921875 444.851562 C 391.847656 444.699219 391.695312 444.625 391.546875 444.550781 C 390.792969 441.84375 389.96875 439.210938 388.691406 436.65625 C 387.710938 434.703125 385.003906 435.078125 383.203125 435.378906 C 380.871094 435.453125 378.617188 435.753906 376.359375 435.980469 C 374.253906 435.601562 372.527344 435.378906 373.351562 432.746094 C 373.953125 431.015625 375.910156 429.136719 374.40625 427.332031 C 373.652344 426.355469 372.375 427.03125 371.472656 426.582031 C 370.945312 426.28125 370.722656 425.753906 370.796875 425.152344 C 370.796875 424.175781 370.945312 423.199219 371.097656 422.296875 C 371.625 419.289062 372.449219 416.28125 373.953125 413.5 C 374.855469 411.46875 374.332031 410.492188 372.902344 409.0625 C 372.449219 408.539062 372.828125 407.785156 372.976562 407.183594 C 373.351562 405.378906 374.332031 403.726562 374.707031 401.921875 C 375.082031 400.34375 375.53125 398.839844 375.609375 397.261719 C 375.757812 396.132812 374.855469 394.929688 375.308594 393.726562 C 376.886719 392.976562 378.617188 393.425781 380.269531 393.125 C 384.480469 392.601562 386.207031 391.773438 388.011719 387.789062 C 388.238281 387.335938 388.464844 386.886719 388.839844 386.511719 C 389.59375 386.058594 390.570312 386.210938 391.394531 386.132812 C 392.898438 386.285156 394.480469 386.886719 395.90625 386.058594 C 397.035156 385.457031 397.9375 384.554688 398.988281 383.953125 C 399.816406 383.203125 400.945312 382.824219 401.769531 382 C 403.050781 380.269531 402.898438 377.9375 403.351562 375.910156 C 405.53125 370.121094 409.515625 364.933594 412.371094 359.519531 C 413.125 357.488281 412.898438 355.308594 412.898438 353.128906 C 413.199219 349.070312 412.296875 344.859375 413.574219 340.875 C 413.949219 339.296875 415.078125 337.941406 415.605469 336.4375 C 415.753906 334.335938 415.53125 332.230469 416.054688 330.199219 C 418.6875 325.761719 422.972656 322.679688 425.828125 318.394531 C 426.28125 317.71875 426.808594 317.117188 426.957031 316.289062 C 426.957031 316.289062 426.957031 316.214844 426.957031 316.214844 C 427.632812 316.890625 428.007812 317.945312 428.535156 318.695312 C 429.136719 319.824219 429.738281 321.101562 430.414062 322.304688 C 431.09375 323.882812 431.394531 325.839844 432.144531 327.492188 C 436.582031 336.289062 441.46875 344.859375 445.375 353.957031 C 448.457031 361.023438 451.089844 368.164062 453.871094 375.382812 C 456.351562 381.546875 459.285156 387.335938 462.066406 393.425781 C 458.910156 395.757812 454.625 395.230469 451.316406 396.660156 Z M 451.316406 396.660156 " fill-opacity="1" fill-rule="nonzero"/></g><g clip-path="url(#0e54c0e18b)"><path fill="#a87047" d="M 338.617188 391.824219 C 350.441406 391.824219 360.027344 401.410156 360.027344 413.238281 C 360.027344 417.351562 358.867188 421.195312 356.855469 424.457031 C 354.441406 428.453125 352.027344 432.449219 349.617188 436.449219 C 346.675781 441.226562 344.296875 445.089844 341.359375 449.867188 C 338.769531 454.078125 338.59375 454.183594 335.988281 449.949219 C 333.066406 445.195312 330.609375 441.203125 327.683594 436.449219 C 325.277344 432.496094 322.871094 428.542969 320.460938 424.589844 C 318.398438 421.300781 317.207031 417.40625 317.207031 413.238281 C 317.207031 401.410156 326.792969 391.824219 338.617188 391.824219 Z M 338.617188 402.5625 C 343.917969 402.5625 348.214844 406.859375 348.214844 412.160156 C 348.214844 417.460938 343.917969 421.757812 338.617188 421.757812 C 333.316406 421.757812 329.019531 417.460938 329.019531 412.160156 C 329.019531 406.859375 333.316406 402.5625 338.617188 402.5625 Z M 338.617188 402.5625 " fill-opacity="1" fill-rule="evenodd"/></g><g clip-path="url(#d053e91910)"><path fill="#a87047" d="M 199.175781 488.882812 C 204.980469 488.882812 209.6875 493.589844 209.6875 499.394531 C 209.6875 501.414062 209.117188 503.300781 208.128906 504.902344 C 206.945312 506.867188 205.757812 508.828125 204.574219 510.792969 C 203.132812 513.136719 201.964844 515.035156 200.519531 517.378906 C 199.25 519.449219 199.164062 519.5 197.882812 517.421875 C 196.449219 515.085938 195.242188 513.125 193.804688 510.792969 C 192.625 508.851562 191.441406 506.910156 190.261719 504.96875 C 189.246094 503.351562 188.660156 501.441406 188.660156 499.394531 C 188.660156 493.589844 193.367188 488.882812 199.175781 488.882812 Z M 199.175781 494.152344 C 201.777344 494.152344 203.886719 496.261719 203.886719 498.863281 C 203.886719 501.46875 201.777344 503.578125 199.175781 503.578125 C 196.570312 503.578125 194.460938 501.46875 194.460938 498.863281 C 194.460938 496.261719 196.570312 494.152344 199.175781 494.152344 Z M 199.175781 494.152344 " fill-opacity="1" fill-rule="evenodd"/></g><g clip-path="url(#2b7ffeb4d1)"><path fill="#a87047" d="M 179.667969 450.285156 C 185.472656 450.285156 190.179688 454.992188 190.179688 460.796875 C 190.179688 462.816406 189.609375 464.703125 188.621094 466.308594 C 187.4375 468.269531 186.25 470.230469 185.066406 472.195312 C 183.625 474.539062 182.457031 476.4375 181.011719 478.785156 C 179.742188 480.851562 179.65625 480.902344 178.375 478.824219 C 176.941406 476.492188 175.734375 474.527344 174.296875 472.195312 C 173.117188 470.253906 171.933594 468.3125 170.753906 466.375 C 169.738281 464.757812 169.152344 462.847656 169.152344 460.796875 C 169.152344 454.992188 173.859375 450.285156 179.667969 450.285156 Z M 179.667969 455.554688 C 182.269531 455.554688 184.378906 457.667969 184.378906 460.269531 C 184.378906 462.871094 182.269531 464.980469 179.667969 464.980469 C 177.0625 464.980469 174.953125 462.871094 174.953125 460.269531 C 174.953125 457.667969 177.0625 455.554688 179.667969 455.554688 Z M 179.667969 455.554688 " fill-opacity="1" fill-rule="evenodd"/></g></svg>