<svg width="42" height="42" viewBox="0 0 42 42" fill="none" xmlns="http://www.w3.org/2000/svg">
<path fill-rule="evenodd" clip-rule="evenodd" d="M7.73863 7.69755C15.0854 0.350816 26.9968 0.350816 34.3435 7.69755C41.6903 15.0443 41.6903 26.9557 34.3435 34.3024C32.1847 36.4613 28.8678 38.4352 25.1719 39.3193C21.4577 40.2078 17.2631 40.0144 13.4776 37.675C13.2812 37.5536 13.1554 37.476 13.0604 37.4207C12.9959 37.3831 12.9673 37.3687 12.9614 37.3658C12.8976 37.341 12.8761 37.3383 12.8743 37.338C12.8713 37.3375 12.8474 37.3338 12.7744 37.3394C12.7872 37.3384 12.7742 37.3378 12.6968 37.3554C12.6145 37.374 12.5062 37.4019 12.3235 37.4492L12.2772 37.4613C11.216 37.7363 10.3551 37.9595 9.66206 38.0902C8.96505 38.2216 8.28862 38.2917 7.6379 38.1593C5.7457 37.7742 4.26689 36.2954 3.8818 34.4032C3.74937 33.7525 3.81948 33.076 3.95092 32.379C4.08161 31.686 4.30475 30.8251 4.57981 29.7639L4.59183 29.7175C4.6392 29.5348 4.66709 29.4266 4.68568 29.3444C4.70316 29.2671 4.70258 29.2541 4.70161 29.2667C4.70714 29.1946 4.70339 29.1706 4.70281 29.1669C4.70227 29.1632 4.69886 29.1404 4.67485 29.079C4.67187 29.0732 4.65757 29.0448 4.62025 28.9811C4.56508 28.8869 4.48777 28.7623 4.3665 28.5671C2.02399 24.7977 1.78018 20.649 2.65098 16.9437C3.51726 13.2578 5.4992 9.93698 7.73863 7.69755ZM32.4874 9.55371C26.1658 3.2321 15.9164 3.2321 9.59478 9.55371C7.68953 11.459 5.95734 14.3489 5.20636 17.5443C4.45991 20.7204 4.69572 24.1237 6.59605 27.1816C6.61328 27.2093 6.63055 27.237 6.64782 27.2647C6.82878 27.5551 7.00793 27.8425 7.11055 28.1002C7.29415 28.5612 7.35687 28.9728 7.31891 29.4675C7.29775 29.7434 7.22314 30.0296 7.15162 30.3041C7.14533 30.3282 7.13907 30.3522 7.13286 30.3761C6.84293 31.4948 6.64279 32.2698 6.53046 32.8654C6.41698 33.4672 6.42514 33.7375 6.45407 33.8797C6.62911 34.7398 7.3013 35.412 8.16139 35.587C8.30356 35.6159 8.57386 35.6241 9.17563 35.5106C9.77132 35.3983 10.5463 35.1982 11.6649 34.9082C11.6889 34.902 11.713 34.8957 11.7371 34.8894C12.0113 34.818 12.2973 34.7434 12.5722 34.7222C13.0663 34.684 13.4749 34.7458 13.9357 34.9282C14.1928 35.03 14.4814 35.2089 14.7736 35.39C14.8015 35.4073 14.8295 35.4247 14.8575 35.442C17.9142 37.3309 21.3559 37.5331 24.5612 36.7663C27.7848 35.9952 30.6708 34.2629 32.4874 32.4463C38.809 26.1247 38.809 15.8753 32.4874 9.55371Z" fill="#A87047"/>
<path d="M15.8426 20.7511C15.8426 21.7176 15.0591 22.5011 14.0926 22.5011C13.1261 22.5011 12.3426 21.7176 12.3426 20.7511C12.3426 19.7846 13.1261 19.0011 14.0926 19.0011C15.0591 19.0011 15.8426 19.7846 15.8426 20.7511Z" fill="#A87047"/>
<path d="M22.8426 20.7511C22.8426 21.7176 22.0591 22.5011 21.0926 22.5011C20.1261 22.5011 19.3426 21.7176 19.3426 20.7511C19.3426 19.7846 20.1261 19.0011 21.0926 19.0011C22.0591 19.0011 22.8426 19.7846 22.8426 20.7511Z" fill="#A87047"/>
<path d="M29.8426 20.7511C29.8426 21.7176 29.0591 22.5011 28.0926 22.5011C27.1261 22.5011 26.3426 21.7176 26.3426 20.7511C26.3426 19.7846 27.1261 19.0011 28.0926 19.0011C29.0591 19.0011 29.8426 19.7846 29.8426 20.7511Z" fill="#A87047"/>
</svg>
