<svg width="108" height="260" viewBox="0 0 108 260" fill="none" xmlns="http://www.w3.org/2000/svg">
<path d="M-260.968 170.541C-261.874 204.334 -243.675 251.123 -206.212 242.675C-177.895 236.29 -203.661 204.154 -168.84 185.981C-134.019 167.807 -88.5901 173.269 -66.8614 203.192C-50.8608 225.226 -79.2195 246.254 -66.8614 270.01C-38.4556 324.615 102.444 312.594 107.834 252.799C111.407 213.164 56.2306 207.401 39.1728 170.541C18.4472 125.757 60.936 85.6182 27.2946 47.2812C1.85339 18.2889 -27.2008 -8.84112 -66.8614 2.73538C-118.369 17.77 -17.6103 104.234 -66.8614 124.224C-89.7427 133.511 -106.512 127.469 -131.467 124.224C-161.972 120.257 -176.289 95.4283 -206.212 101.951C-242.481 109.857 -260.092 137.893 -260.968 170.541Z" fill="url(#paint0_linear_23_17)" fill-opacity="0.6"/>
<defs>
<linearGradient id="paint0_linear_23_17" x1="-261" y1="0" x2="38.5491" y2="362.405" gradientUnits="userSpaceOnUse">
<stop offset="0.659217" stop-color="#AA7A52"/>
<stop offset="0.832847" stop-color="#A87047"/>
<stop offset="1" stop-color="#BDC5A5"/>
</linearGradient>
</defs>
</svg>
