<svg width="15" height="19" viewBox="0 0 15 19" fill="none" xmlns="http://www.w3.org/2000/svg">
<path d="M7.09688 9.44816C9.56785 9.44816 11.571 7.44505 11.571 4.97408C11.571 2.50311 9.56785 0.5 7.09688 0.5C4.62592 0.5 2.6228 2.50311 2.6228 4.97408C2.6228 7.44505 4.62592 9.44816 7.09688 9.44816Z" fill="#A87047" fill-opacity="0.8"/>
<path fill-rule="evenodd" clip-rule="evenodd" d="M-4.62594e-05 15.6708C-0.00123324 15.3563 0.0691093 15.0456 0.205675 14.7623C0.63423 13.9052 1.84275 13.4509 2.84557 13.2452C3.5688 13.0909 4.30202 12.9878 5.03977 12.9367C6.40566 12.8167 7.77944 12.8167 9.14532 12.9367C9.88301 12.9884 10.6162 13.0915 11.3395 13.2452C12.3423 13.4509 13.5509 13.8623 13.9794 14.7623C14.2541 15.3399 14.2541 16.0104 13.9794 16.5879C13.5509 17.4879 12.3423 17.8993 11.3395 18.0965C10.6171 18.2572 9.88366 18.3632 9.14532 18.4136C8.0336 18.5078 6.91669 18.525 5.8026 18.465C5.54547 18.465 5.2969 18.465 5.03977 18.4136C4.3042 18.3638 3.57352 18.2578 2.85414 18.0965C1.84275 17.8993 0.642801 17.4879 0.205675 16.5879C0.069807 16.3013 -0.000465714 15.988 -4.62594e-05 15.6708Z" fill="#A87047" fill-opacity="0.8"/>
</svg>
