<svg width="80" height="80" viewBox="0 0 80 80" fill="none" xmlns="http://www.w3.org/2000/svg">
<ellipse cx="43.9216" cy="39.5918" rx="36.0784" ry="38.7755" fill="#A87047" fill-opacity="0.8"/>
<ellipse cx="42.353" cy="39.5918" rx="36.0784" ry="38.7755" fill="white"/>
<ellipse cx="38.4314" cy="40" rx="38.4314" ry="40" fill="#A87047" fill-opacity="0.8"/>
<path d="M48.7895 27.7361C48.1165 27.1113 47.0302 27.1158 46.3631 27.7462C45.6961 28.3766 45.701 29.3942 46.374 30.019L50.4069 33.7633C52.0436 35.2829 53.1664 36.3287 53.9261 37.2148C54.173 37.5028 54.3656 37.7563 54.5152 37.9847L20.1307 37.9847C19.1832 37.9847 18.415 38.7042 18.415 39.5918C18.415 40.4794 19.1832 41.199 20.1307 41.199L54.5152 41.199C54.3656 41.4274 54.173 41.6809 53.9261 41.9689C53.1664 42.855 52.0436 43.9008 50.4069 45.4204L46.374 49.1646C45.701 49.7895 45.6961 50.807 46.3631 51.4375C47.0302 52.0679 48.1165 52.0724 48.7895 51.4476L52.8951 47.6359C54.4414 46.2003 55.7052 45.027 56.6015 43.9816C57.5335 42.8944 58.2082 41.791 58.3884 40.4665C58.428 40.1761 58.4477 39.884 58.4477 39.5918C58.4477 39.2997 58.428 39.0076 58.3884 38.7172C58.2082 37.3927 57.5335 36.2892 56.6015 35.2021C55.7052 34.1567 54.4414 32.9834 52.895 31.5477L48.7895 27.7361Z" fill="#FAFAFA"/>
</svg>
