<svg width="28" height="29" viewBox="0 0 28 29" fill="none" xmlns="http://www.w3.org/2000/svg">
<path fill-rule="evenodd" clip-rule="evenodd" d="M6.86708 4.62073C3.53356 7.20414 1.8668 8.49584 1.21217 10.4039C1.15966 10.5569 1.11242 10.712 1.07056 10.8687C0.548757 12.8228 1.1854 14.9128 2.45869 19.0929C3.73199 23.2729 4.36863 25.3629 5.86756 26.6166C5.98781 26.7172 6.11147 26.813 6.2383 26.904C7.81932 28.0371 9.87955 28.0371 14 28.0371C18.1205 28.0371 20.1807 28.0371 21.7617 26.904C21.8885 26.813 22.0122 26.7172 22.1325 26.6166C23.6314 25.3629 24.268 23.2729 25.5413 19.0929C26.8146 14.9128 27.4513 12.8228 26.9294 10.8687C26.8876 10.712 26.8404 10.5569 26.7878 10.4039C26.1332 8.49585 24.4665 7.20415 21.1329 4.62075C17.7994 2.03734 16.1327 0.745623 14.2291 0.671138C14.0764 0.665163 13.9236 0.665163 13.7709 0.671138C11.8674 0.745623 10.2006 2.03733 6.86708 4.62073ZM11.5 20.7595C10.9822 20.7595 10.5625 21.2072 10.5625 21.7595C10.5625 22.3118 10.9822 22.7595 11.5 22.7595H16.5C17.0178 22.7595 17.4375 22.3118 17.4375 21.7595C17.4375 21.2072 17.0178 20.7595 16.5 20.7595H11.5Z" fill="#A87047"/>
</svg>
