<svg width="30" height="32" viewBox="0 0 30 32" fill="none" xmlns="http://www.w3.org/2000/svg">
<path d="M9.23077 0C7.75892 0.237824 6.32481 0.932685 5.07692 2.08445L1.69231 5.20835C0.626975 6.19162 0 7.73477 0 9.37355V25.7107C0 29.9004 3.88678 32.292 6.61042 29.7781C7.40351 29.0461 8.30162 28.5738 9.23077 28.3609V0Z" fill="#A87047"/>
<path d="M11.5385 28.3609C12.4676 28.5738 13.3657 29.0461 14.1588 29.7781L14.3077 29.9155C15.5556 31.0673 16.9897 31.7622 18.4615 32V3.63911C17.5324 3.42625 16.6343 2.95386 15.8412 2.22187L15.6923 2.08445C14.4444 0.932685 13.0103 0.237824 11.5385 5.21581e-10V28.3609Z" fill="#A87047"/>
<path d="M20.7692 3.63911V32C22.2411 31.7622 23.6752 31.0673 24.9231 29.9156L28.3077 26.7917C29.373 25.8084 30 24.2652 30 22.6265V6.28935C30 2.09961 26.1132 -0.291977 23.3896 2.22187C22.5965 2.95386 21.6984 3.42625 20.7692 3.63911Z" fill="#A87047"/>
</svg>
