<svg width="34" height="26" viewBox="0 0 34 26" fill="none" xmlns="http://www.w3.org/2000/svg">
<mask id="path-1-inside-1_55_121" fill="white">
<ellipse cx="1.32199" cy="1.73958" rx="1.32199" ry="1.73958" transform="matrix(0.995881 0.0906742 -0.0522221 0.998635 22.5767 18.2253)"/>
</mask>
<path d="M23.1272 20.0209C23.1229 20.104 23.095 20.1019 23.1465 20.0427C23.1993 19.982 23.4234 19.7865 23.816 19.8223L23.6071 23.8168C24.7269 23.9188 25.6296 23.3943 26.1917 22.7484C26.7527 22.1037 27.0649 21.2599 27.1107 20.3836L23.1272 20.0209ZM23.816 19.8223C24.2087 19.858 24.4103 20.0923 24.4562 20.1619C24.5011 20.2299 24.4733 20.227 24.4776 20.1438L20.4941 19.7811C20.4483 20.6574 20.6697 21.5499 21.1583 22.2901C21.6478 23.0318 22.4874 23.7149 23.6071 23.8168L23.816 19.8223ZM24.4776 20.1438C24.482 20.0607 24.5099 20.0628 24.4583 20.1221C24.4056 20.1827 24.1815 20.3782 23.7888 20.3424L23.9977 16.3479C22.8779 16.2459 21.9752 16.7704 21.4131 17.4164C20.8522 18.061 20.5399 18.9049 20.4941 19.7811L24.4776 20.1438ZM23.7888 20.3424C23.3962 20.3067 23.1945 20.0724 23.1486 20.0028C23.1037 19.9348 23.1316 19.9377 23.1272 20.0209L27.1107 20.3836C27.1566 19.5073 26.9351 18.6148 26.4466 17.8746C25.957 17.1329 25.1175 16.4498 23.9977 16.3479L23.7888 20.3424Z" fill="#A87047" mask="url(#path-1-inside-1_55_121)"/>
<path d="M24.7558 21.0155L26.7392 22.7839" stroke="#A87047" stroke-width="2"/>
<path fill-rule="evenodd" clip-rule="evenodd" d="M26.3849 2.05342C24.8352 2.48284 20.961 2.16079 20.4463 2.48285C19.9317 2.80491 16.3119 6.05235 15.8204 7.56203C15.3289 9.0717 14.5251 9.28642 13.7502 8.53494C12.9754 7.78345 9.78931 7.99146 9.53489 7.66269C9.28046 7.33391 6.95012 6.99172 5.83411 7.23998C4.7181 7.48823 4.09938 6.56903 3.59631 6.80387C3.06583 7.12859 2.62044 7.61295 2.30684 8.20617C2.04663 8.63559 2.56128 9.82991 2.39359 10.2593C1.961 10.6341 1.49354 10.9515 1 11.2054C1.29195 11.9341 1.38085 12.7503 1.25439 13.5404C0.895882 14.8286 1.20816 17.8345 2.14491 19.5791C3.08167 21.3236 2.72317 24.4905 3.16841 25.1078C3.61366 25.7251 7.08889 25.611 8.64437 24.3228C9.74489 23.3067 11.1184 22.7723 12.5244 22.8131C13.7734 22.8131 15.4156 21.4712 15.8204 20.8002C16.2252 20.1292 18.0467 20.0823 18.8042 20.1896C19.5617 20.297 20.3191 19.2436 21.1692 18.1767C22.0192 17.1099 24.6849 16.6671 27.5298 15.5465C30.3748 14.426 29.7503 12.7553 30.4211 11.7489C30.9993 10.9102 31.7683 11.1517 33 10.5344C31.6122 6.97832 30.0741 2.99277 29.305 1C27.923 1.52335 26.8186 1.93265 26.3849 2.05342Z" fill="#A87047" stroke="#865B3B" stroke-miterlimit="10"/>
</svg>
