<svg width="42" height="29" viewBox="0 0 42 29" fill="none" xmlns="http://www.w3.org/2000/svg">
<mask id="path-1-inside-1_55_121" fill="white">
<ellipse cx="1.65118" cy="1.95348" rx="1.65118" ry="1.95348" transform="matrix(0.996674 0.0814973 -0.0581298 0.998309 27.9709 21.3371)"/>
</mask>
<path d="M29.1554 23.3934C29.1502 23.4816 29.1178 23.5045 29.1391 23.4826C29.1514 23.4698 29.1859 23.4391 29.2509 23.4126C29.3192 23.3848 29.4083 23.3674 29.5057 23.3754L29.2732 27.3686C31.584 27.5576 33.0342 25.5713 33.1421 23.7194L29.1554 23.3934ZM29.5057 23.3754C29.6031 23.3833 29.6894 23.4151 29.7538 23.4538C29.8151 23.4906 29.8457 23.5266 29.8565 23.5412C29.875 23.5664 29.8456 23.5384 29.8507 23.4502L25.864 23.1243C25.7562 24.9762 26.9625 27.1797 29.2732 27.3686L29.5057 23.3754ZM29.8507 23.4502C29.8558 23.3621 29.8882 23.3391 29.867 23.3611C29.8546 23.3738 29.8202 23.4045 29.7551 23.431C29.6868 23.4588 29.5977 23.4762 29.5003 23.4683L29.7328 19.475C27.4221 19.2861 25.9718 21.2723 25.864 23.1243L29.8507 23.4502ZM29.5003 23.4683C29.4029 23.4603 29.3167 23.4286 29.2522 23.3899C29.1909 23.353 29.1603 23.317 29.1496 23.3024C29.1311 23.2772 29.1605 23.3052 29.1554 23.3934L33.1421 23.7194C33.2499 21.8674 32.0436 19.664 29.7328 19.475L29.5003 23.4683Z" fill="#A87047" mask="url(#path-1-inside-1_55_121)"/>
<path d="M30.6947 24.4693L33.174 26.4545" stroke="#A87047" stroke-width="2"/>
<path fill-rule="evenodd" clip-rule="evenodd" d="M32.7312 2.18257C30.794 2.66463 25.9512 2.3031 25.3079 2.66464C24.6646 3.02619 20.1399 6.67176 19.5255 8.36651C18.9111 10.0613 17.9064 10.3023 16.9378 9.4587C15.9692 8.61509 11.9866 8.84859 11.6686 8.47951C11.3506 8.11043 8.43765 7.72629 7.04264 8.00498C5.64762 8.28367 4.87423 7.25178 4.24539 7.51541C3.58229 7.87994 3.02555 8.42367 2.63355 9.08962C2.30828 9.57169 2.9516 10.9124 2.74198 11.3945C2.20125 11.8152 1.61692 12.1715 1 12.4566C1.36494 13.2746 1.47607 14.1908 1.31799 15.0778C0.869853 16.524 1.2602 19.8984 2.43114 21.8568C3.60208 23.8152 3.15396 27.3704 3.71052 28.0634C4.26708 28.7563 8.61111 28.6283 10.5555 27.1821C11.9311 26.0414 13.648 25.4415 15.4055 25.4873C16.9667 25.4873 19.0195 23.9809 19.5255 23.2277C20.0315 22.4744 22.3083 22.4217 23.2552 22.5422C24.2021 22.6627 25.1489 21.4802 26.2114 20.2825C27.274 19.0849 30.6061 18.5878 34.1623 17.3299C37.7185 16.072 36.9379 14.1965 37.7763 13.0667C38.4991 12.1251 39.4604 12.3963 41 11.7033C39.2653 7.71125 37.3426 3.23708 36.3813 1C34.6538 1.58752 33.2733 2.04699 32.7312 2.18257Z" fill="#A87047" stroke="#865B3B" stroke-miterlimit="10"/>
</svg>
